Coordinates
version=1
nRows=14
nColumns=38
inDegrees=no

Units are S.I. units (second, meters, Newtons, ...)
If the header above contains a line with 'inDegrees', this indicates whether rotational values are in degrees (yes) or radians (no).

endheader
time	pelvis_tilt	pelvis_list	pelvis_rotation	pelvis_tx	pelvis_ty	pelvis_tz	hip_flexion_r	hip_adduction_r	hip_rotation_r	knee_angle_r	ankle_angle_r	subtalar_angle_r	mtp_angle_r	hip_flexion_l	hip_adduction_l	hip_rotation_l	knee_angle_l	ankle_angle_l	subtalar_angle_l	mtp_angle_l	lumbar_extension	lumbar_bending	lumbar_rotation	arm_flex_r	arm_add_r	arm_rot_r	elbow_flex_r	pro_sup_r	wrist_flex_r	wrist_dev_r	arm_flex_l	arm_add_l	arm_rot_l	elbow_flex_l	pro_sup_l	wrist_flex_l	wrist_dev_l
3.08	-0.97545	1.50118	-0.211997	0.815425	0.369644	0.925215	0.116543	0.0882121	-0.388752	0.253625	0.111271	0	0	0.220363	-0.247251	0.0238071	1.30569	-0.0192972	0	0	-0.26108	0.115857	0.232508	0.239759	-0.234992	-0.202946	1.44901	1.5708	0	0	-0.0796481	-0.22264	-1.49164	0	0.669409	0	0
3.09	-0.94456	1.50477	-0.252943	0.81486	0.362253	0.926167	0.105012	0.0884825	-0.380274	0.24954	0.113904	0	0	0.240604	-0.232785	0.0276896	1.33497	-0.0123826	0	0	-0.258931	0.111545	0.231115	0.230347	-0.233773	-0.200538	1.45362	1.5708	0	0	-0.0771042	-0.218578	-1.49496	0	0.672745	0	0
3.1	-0.907321	1.50834	-0.300435	0.814353	0.354768	0.927087	0.0925935	0.0887363	-0.370804	0.243899	0.11629	0	0	0.259716	-0.218622	0.0297578	1.35969	-0.00359681	0	0	-0.256436	0.10712	0.229348	0.221113	-0.232684	-0.19694	1.45794	1.5708	0	0	-0.0751125	-0.215638	-1.4985	0	0.674702	0	0
3.11	-0.86542	1.51191	-0.352336	0.813876	0.34729	0.927977	0.0800197	0.0887	-0.362394	0.237886	0.118659	0	0	0.278643	-0.204431	0.0310164	1.38034	0.00588036	0	0	-0.253587	0.102642	0.226763	0.212336	-0.231714	-0.192174	1.46199	1.5708	0	0	-0.0733264	-0.213308	-1.50181	0	0.67549	0	0
3.12	-0.816195	1.51505	-0.412029	0.813441	0.339801	0.928861	0.0670536	0.0885735	-0.355175	0.231789	0.120767	0	0	0.29726	-0.190819	0.0309907	1.39739	0.0150798	0	0	-0.250534	0.0984616	0.224247	0.203746	-0.231647	-0.186406	1.46564	1.5708	0	0	-0.0722575	-0.211524	-1.50497	0	0.673897	0	0
3.13	-0.762508	1.51792	-0.476297	0.813101	0.33235	0.92972	0.0540551	0.0882773	-0.347907	0.225372	0.122616	0	0	0.315807	-0.17806	0.0288949	1.41011	0.0238561	0	0	-0.247213	0.0945361	0.221602	0.195121	-0.232373	-0.179855	1.46916	1.5708	0	0	-0.0715335	-0.209658	-1.50803	0	0.669745	0	0
3.14	-0.646847	1.51935	-0.600841	0.812703	0.325148	0.93044	0.0375696	0.0875645	-0.339573	0.218279	0.124404	0	0	0.331778	-0.164935	0.0341433	1.41576	0.0275031	0	0	-0.246464	0.0880769	0.219617	0.185341	-0.233579	-0.176028	1.47342	1.5708	0	0	-0.113084	-0.180658	-1.35241	0	1.0412e-08	0	0
3.15	-0.630052	1.52403	-0.629431	0.812766	0.317657	0.931298	0.027985	0.0856537	-0.329173	0.212121	0.122998	0	0	0.350552	-0.154055	0.0200881	1.42191	0.0378618	0	0	-0.239259	0.0865029	0.217383	0.176223	-0.234376	-0.16855	1.47567	1.5708	0	0	-0.0766069	-0.187778	-1.36347	0	0.0470076	0	0
3.16	-0.549331	1.5266	-0.721297	0.812546	0.310335	0.931986	0.0149244	0.0840423	-0.320185	0.20528	0.123329	0	0	0.366143	-0.14432	0.0128493	1.42182	0.0453634	0	0	-0.235604	0.0815867	0.215269	0.167297	-0.235014	-0.162417	1.47798	1.5708	0	0	-0.0721548	-0.191323	-1.40411	0	0.237065	0	0
3.17	-0.506138	1.5301	-0.776255	0.81248	0.30301	0.932686	0.00484255	0.0823649	-0.311232	0.198925	0.123942	0	0	0.383335	-0.135901	0.00416115	1.41713	0.0541664	0	0	-0.229539	0.078867	0.213886	0.157951	-0.235936	-0.156142	1.47993	1.5708	0	0	-0.0693705	-0.193976	-1.41873	0	0.261222	0	0
3.18	-0.222687	1.52441	-1.0687	0.811299	0.295776	0.933553	-0.0202027	0.0797835	-0.305414	0.190631	0.127183	0	0	0.387091	-0.12844	-0.00540673	1.40987	0.064525	0	0	-0.236815	0.065266	0.212647	0.130665	-0.234885	-0.127234	1.4884	1.5708	0	0	-0.184435	-0.169711	-1.0695	0.0157464	0.261222	0	0
3.19	-0.286979	1.52073	-1.03005	0.809792	0.289595	0.934659	-0.0291075	0.0871176	-0.274318	0.187857	0.123382	0	0	0.399631	-0.136292	-0.0247705	1.3999	0.0751811	0	0	-0.238408	0.0686486	0.227056	0.125059	-0.241405	-0.119798	1.49325	1.5708	0	0	-0.182565	-0.157937	-1.0566	0.0132733	0.261222	0	0
3.2	-0.842137	1.55185	-0.480818	0.813395	0.281026	0.934559	-0.00590856	0.0743795	-0.272101	0.181321	0.120151	0	0	0.446449	-0.111601	-0.0261838	1.3781	0.0798863	0	0	-0.193288	0.0826824	0.210366	0.109728	-0.242149	-0.104662	1.4964	1.5708	0	0	-0.0959444	-0.210393	-1.48957	0	0	0	0
3.21	-0.670565	1.55544	-0.665269	0.813448	0.273998	0.935207	-0.0172044	0.0707546	-0.261795	0.175233	0.122019	0	0	0.458049	-0.105827	-0.0380744	1.35864	0.0870996	0	0	-0.19038	0.0789268	0.208351	0.101722	-0.243689	-0.0966528	1.50059	1.5708	0	0	-0.0963354	-0.220962	-1.5623	0	0	0	0
